<mxfile host="app.diagrams.net" modified="2024-01-08T08:19:43.028Z" agent="Mozilla/5.0 (Macintosh; Intel Mac OS X 10_15_7) AppleWebKit/537.36 (KHTML, like Gecko) Chrome/120.0.0.0 Safari/537.36" etag="vLIQZXN0vk-S1NYRJuWu" version="22.1.17" type="device">
  <diagram name="Page-1" id="75It2PHmT8_6yy-UEXe2">
    <mxGraphModel dx="1434" dy="761" grid="1" gridSize="10" guides="1" tooltips="1" connect="1" arrows="1" fold="1" page="1" pageScale="1" pageWidth="827" pageHeight="1169" math="0" shadow="0">
      <root>
        <mxCell id="0" />
        <mxCell id="1" parent="0" />
        <mxCell id="skGeO7ROthH0GGSBmLRM-1" value="" style="rounded=0;whiteSpace=wrap;html=1;imageWidth=30;strokeWidth=4;rotation=0;" parent="1" vertex="1">
          <mxGeometry x="350" y="310" width="488" height="680" as="geometry" />
        </mxCell>
        <mxCell id="skGeO7ROthH0GGSBmLRM-2" value="Deck:" style="text;html=1;strokeColor=default;fillColor=none;align=left;verticalAlign=middle;whiteSpace=wrap;rounded=0;fontSize=20;labelPosition=center;verticalLabelPosition=middle;strokeWidth=4;" parent="1" vertex="1">
          <mxGeometry x="350" y="310" width="488" height="70" as="geometry" />
        </mxCell>
        <mxCell id="skGeO7ROthH0GGSBmLRM-3" value="Format:" style="text;html=1;strokeColor=default;fillColor=none;align=left;verticalAlign=middle;whiteSpace=wrap;rounded=0;fontSize=20;strokeWidth=3;" parent="1" vertex="1">
          <mxGeometry x="350" y="380" width="488" height="70" as="geometry" />
        </mxCell>
        <mxCell id="skGeO7ROthH0GGSBmLRM-4" value="Notes:" style="text;html=1;strokeColor=default;fillColor=none;align=left;verticalAlign=top;whiteSpace=wrap;rounded=0;fontSize=20;strokeWidth=3;" parent="1" vertex="1">
          <mxGeometry x="350" y="450" width="488" height="540" as="geometry" />
        </mxCell>
      </root>
    </mxGraphModel>
  </diagram>
</mxfile>
